<?xml version="1.0" encoding="utf-8"?>
<!-- Generator: Adobe Illustrator 24.1.3, SVG Export Plug-In . SVG Version: 6.00 Build 0)  -->
<svg version="1.1" id="Layer_1" xmlns="http://www.w3.org/2000/svg" xmlns:xlink="http://www.w3.org/1999/xlink" x="0px" y="0px"
	 viewBox="0 0 50.6 31.2" style="enable-background:new 0 0 50.6 31.2;" xml:space="preserve">
<path id="Path_6" d="M39.2,8.4c-0.5-0.6-1.2-1-2-1l0,0l-5.6,0.1l0,0l-16.6,0l-1.5-4.4c-0.2-0.7-0.9-1.2-1.7-1.2H8.6v0.8h3.2
	c0.4,0,0.8,0.3,0.9,0.7l5.8,17.2l-0.1,0c-1.1,0.6-1.5,2-0.8,3.1c0.4,0.7,1.1,1.1,2,1.1h0.3c1,0,1.8,0.8,1.8,1.8c0,1-0.8,1.8-1.8,1.8
	c-1,0-1.8-0.8-1.8-1.8h-0.8c0,1.4,1.2,2.6,2.6,2.6c1.4,0,2.6-1.2,2.6-2.6c0-0.7-0.3-1.4-0.8-1.9h13c1,0,1.8,0.8,1.8,1.8
	c0,1-0.8,1.8-1.8,1.8c-1,0-1.8-0.8-1.8-1.8h-0.8c0,1.4,1.2,2.6,2.6,2.6s2.6-1.2,2.6-2.6S36.2,24,34.7,24H19.5
	c-0.8,0-1.5-0.7-1.5-1.5c0-0.5,0.3-1,0.8-1.3l0.3-0.2h16.5c0.8,0,1.5-0.5,1.7-1.3l0.1-0.2c0.1-0.2,0.1-0.3,0.2-0.5l0.7-2.5l0.3-1.2
	l0,0l1.2-4.5C39.9,10,39.7,9.1,39.2,8.4z M38.9,10.6l-1.5,5.8l-0.8,2.9c-0.3,0.6-0.9,1-1.6,1H19.2L15.2,8.3l17.5,0v0l4.5-0.1
	c0.5,0,1.1,0.3,1.4,0.7C38.9,9.4,39.1,10,38.9,10.6L38.9,10.6z"/>
</svg>
