<?xml version="1.0" encoding="utf-8"?>
<!-- Generator: Adobe Illustrator 24.1.3, SVG Export Plug-In . SVG Version: 6.00 Build 0)  -->
<svg version="1.1" id="Layer_1" xmlns="http://www.w3.org/2000/svg" xmlns:xlink="http://www.w3.org/1999/xlink" x="0px" y="0px"
	 viewBox="0 0 50.6 31.2" style="enable-background:new 0 0 50.6 31.2;" xml:space="preserve">
<style type="text/css">
	.st0{fill:#1A1818;}
</style>
<g id="Group_12">
	<path id="Path_8" class="st0" d="M35,16.6c0-1.6-1.3-2.9-3.4-2.9h-2.9v8.3h1.9v-2.6h1l1.6,2.6h2.1l-1.9-3
		C34.4,18.7,35.1,17.7,35,16.6z M31.4,18h-0.8v-2.8h0.8c1.2,0,1.7,0.7,1.7,1.4S32.7,18,31.4,18z"/>
	<rect id="Rectangle_1" x="39.3" y="11.6" class="st0" width="4.5" height="1.1"/>
	<path id="Path_9" class="st0" d="M41.5,13.5c-2.4-0.1-4.4,1.8-4.4,4.2v0.1c0,2.5,2,4.4,4.4,4.4s4.4-1.8,4.4-4.4
		c0-2.4-1.9-4.4-4.3-4.4c0,0,0,0,0,0H41.5z M41.5,20.6c-1.4,0-2.5-1.1-2.5-2.7c0-1.6,1.1-2.7,2.5-2.7s2.5,1.1,2.5,2.7
		C44,19.5,42.9,20.6,41.5,20.6L41.5,20.6z"/>
	<path id="Path_10" class="st0" d="M15.4,10.3h4.4V10h-2.1C18.8,7.7,20,5.1,21,4c0.2-0.2,0.4-0.3,0.7-0.3c0.7,0,1.3,0.2,1.8,0.6
		c-0.8-0.3-1.7,0.2-2,1.1s0.2,1.7,1.1,2c0.8,0.3,1.7-0.2,2-1.1c0,0,0,0,0,0c0-0.1,0.1-0.3,0.1-0.5c0-1-1-2.4-3-2.4
		c-2.6,0-6,2.2-6,5.3c0,0.4,0.1,0.8,0.2,1.2h-3v0.3c0.8,0,1.1,0.4,1.1,1.1c0,0.5-0.1,1-0.4,1.5C12.4,15.5,9.9,21,8,24.5
		c-1.2,2.2-2.1,3.6-3.3,3.6c-0.7,0-1.4-0.2-1.9-0.7c0.7,0.5,1.7,0.2,2.2-0.5c0.5-0.7,0.2-1.7-0.5-2.2c-0.7-0.5-1.7-0.2-2.2,0.5
		C2.1,25.5,2,25.8,2,26.1c0,1.4,1,2.4,2.7,2.4c1.4,0,2.9-0.7,4-1.8c0.6-0.6,1.2-1.3,1.6-2c1.9-2.6,3.6-5.8,4.8-8.4
		c0.4-0.8,1.5-3.2,1.5-3.2C17.5,11.3,16.6,10.3,15.4,10.3z"/>
	<path id="Path_11" class="st0" d="M24.2,21.6c-0.5,0.3-1,0.1-0.5-0.8L26,16c0.2-0.3,0.2-0.7,0.3-1c0.1-0.6-0.4-1.2-1-1.2
		c0,0,0,0,0,0c-0.1,0-0.1,0-0.2,0c-0.2,0-0.4,0-0.5,0.1c0.2,0.3,0,0.7-0.3,1.4l-2.1,4.3c-0.5,0.8-1.4,2-2.6,2.3
		c-0.3,0.1-0.4-0.1-0.4-0.3c0-0.3,0.1-0.6,0.2-0.8l2.3-4.7c0.2-0.3,0.2-0.7,0.3-1c0-0.7-0.5-1.2-1.4-1.2c-0.7,0-1.3,0.3-1.8,0.7
		l0.1,0.1c0.3-0.3,0.7-0.5,1.1-0.6c0.1,0,0.3,0.1,0.3,0.3c0,0.3-0.1,0.6-0.3,0.8l-1.9,4c-0.2,0.5-0.6,1.1-0.6,1.7
		c0,0.8,0.6,1.2,1.5,1.2c1.2,0,2.2-0.8,2.9-1.7c-0.2,1,0.1,1.7,1.2,1.7c0.9,0,2.2-0.6,3.3-2.3l-0.2-0.1C25.7,20.5,25,21.2,24.2,21.6
		z"/>
</g>
</svg>
